<svg xmlns="http://www.w3.org/2000/svg" viewBox="0 0 512 512"><defs><linearGradient id="g" x1="0" x2="1" y1="0" y2="1"><stop offset="0" stop-color="#3b82f6"/><stop offset="1" stop-color="#0ea5e9"/></linearGradient></defs><rect width="512" height="512" rx="96" fill="url(#g)"/><g fill="#fff"><path d="M144 176h224c8.8 0 16 7.2 16 16v16c0 8.8-7.2 16-16 16H144c-8.8 0-16-7.2-16-16v-16c0-8.8 7.2-16 16-16zm0 96h160c8.8 0 16 7.2 16 16v16c0 8.8-7.2 16-16 16H144c-8.8 0-16-7.2-16-16v-16c0-8.8 7.2-16 16-16z"/></g></svg>